<?xml version="1.0" encoding="UTF-8" standalone="no"?>
<!DOCTYPE svg PUBLIC "-//W3C//DTD SVG 1.1//EN"
 "http://www.w3.org/Graphics/SVG/1.1/DTD/svg11.dtd">
<!-- Generated by graphviz version 2.43.0 (0)
 -->
<!-- Title: %3 Pages: 1 -->
<svg width="571pt" height="238pt"
 viewBox="0.00 0.00 571.00 237.74" xmlns="http://www.w3.org/2000/svg" xmlns:xlink="http://www.w3.org/1999/xlink">
<g id="graph0" class="graph" transform="scale(1 1) rotate(0) translate(36 201.74)">
<title>%3</title>
<polygon fill="dimgray" stroke="transparent" points="-36,36 -36,-201.74 535,-201.74 535,36 -36,36"/>
<text text-anchor="middle" x="249.5" y="-150.54" font-family="Helvetica,sans-Serif" font-size="14.00">Sweep&#39;s Plan &amp; Progress</text>
<!-- start -->
<g id="node1" class="node">
<title>start</title>
</g>
<!-- ae011688&#45;172d&#45;42fc&#45;95ec&#45;893f4fa3a7a1 -->
<g id="node3" class="node">
<title>ae011688&#45;172d&#45;42fc&#45;95ec&#45;893f4fa3a7a1</title>
<ellipse fill="#0ee832" stroke="black" cx="246.5" cy="-99.87" rx="193.99" ry="26.74"/>
<text text-anchor="middle" x="246.5" y="-103.67" font-family="Helvetica,sans-Serif" font-size="14.00">✓ Modify</text>
<text text-anchor="middle" x="246.5" y="-88.67" font-family="Helvetica,sans-Serif" font-size="14.00">frontend/app/components/header.tsx</text>
</g>
<!-- start&#45;&gt;ae011688&#45;172d&#45;42fc&#45;95ec&#45;893f4fa3a7a1 -->
<g id="edge2" class="edge">
<title>start&#45;&gt;ae011688&#45;172d&#45;42fc&#45;95ec&#45;893f4fa3a7a1</title>
<path fill="none" stroke="black" d="M1.21,-99.87C4.65,-99.87 20.47,-99.87 42.55,-99.87"/>
<polygon fill="black" stroke="black" points="42.74,-103.37 52.74,-99.87 42.74,-96.37 42.74,-103.37"/>
<text text-anchor="middle" x="26.88" y="-106.67" font-family="Helvetica,sans-Serif" font-size="14.00">Start</text>
</g>
<!-- end -->
<g id="node2" class="node">
<title>end</title>
</g>
<!-- ae011688&#45;172d&#45;42fc&#45;95ec&#45;893f4fa3a7a1&#45;&gt;end -->
<g id="edge3" class="edge">
<title>ae011688&#45;172d&#45;42fc&#45;95ec&#45;893f4fa3a7a1&#45;&gt;end</title>
<path fill="none" stroke="black" d="M440.37,-99.87C460.64,-99.87 477.56,-99.87 487.83,-99.87"/>
<polygon fill="black" stroke="black" points="487.87,-103.37 497.87,-99.87 487.87,-96.37 487.87,-103.37"/>
<text text-anchor="middle" x="469.12" y="-106.67" font-family="Helvetica,sans-Serif" font-size="14.00">Finish</text>
</g>
<!-- cd2282ae&#45;2cbe&#45;4a4a&#45;a7a1&#45;9254c332953c -->
<g id="node4" class="node">
<title>cd2282ae&#45;2cbe&#45;4a4a&#45;a7a1&#45;9254c332953c</title>
<polygon fill="#0ee832" stroke="black" points="460.5,-36 32.5,-36 32.5,0 460.5,0 460.5,-36"/>
<text text-anchor="middle" x="246.5" y="-14.3" font-family="Helvetica,sans-Serif" font-size="14.00">✓ Ran sandbox for `frontend/app/components/header.tsx`.</text>
</g>
<!-- ae011688&#45;172d&#45;42fc&#45;95ec&#45;893f4fa3a7a1&#45;&gt;cd2282ae&#45;2cbe&#45;4a4a&#45;a7a1&#45;9254c332953c -->
<g id="edge1" class="edge">
<title>ae011688&#45;172d&#45;42fc&#45;95ec&#45;893f4fa3a7a1&#45;&gt;cd2282ae&#45;2cbe&#45;4a4a&#45;a7a1&#45;9254c332953c</title>
<path fill="none" stroke="black" stroke-dasharray="5,2" d="M246.5,-72.72C246.5,-64.27 246.5,-54.89 246.5,-46.36"/>
<polygon fill="black" stroke="black" points="250,-46.15 246.5,-36.15 243,-46.15 250,-46.15"/>
</g>
</g>
</svg>
